<mxfile host="app.diagrams.net" modified="2024-03-28T14:39:36.459Z" agent="Mozilla/5.0 (Windows NT 10.0; Win64; x64) AppleWebKit/537.36 (KHTML, like Gecko) Chrome/123.0.0.0 Safari/537.36" etag="-vMwg_aRwrkpMkcxwT-w" version="24.2.0" type="device">
  <diagram name="Page-1" id="xBfWq-chQj_UlSk_Sn_a">
    <mxGraphModel dx="1020" dy="1074" grid="1" gridSize="10" guides="1" tooltips="1" connect="1" arrows="1" fold="1" page="1" pageScale="1" pageWidth="850" pageHeight="1100" math="0" shadow="0">
      <root>
        <mxCell id="0" />
        <mxCell id="1" parent="0" />
        <mxCell id="1f23ROASY3vp1ApizNz6-4" style="edgeStyle=orthogonalEdgeStyle;rounded=0;orthogonalLoop=1;jettySize=auto;html=1;exitX=0.5;exitY=1;exitDx=0;exitDy=0;" edge="1" parent="1" source="1f23ROASY3vp1ApizNz6-1">
          <mxGeometry relative="1" as="geometry">
            <mxPoint x="407.6190476190476" y="240" as="targetPoint" />
          </mxGeometry>
        </mxCell>
        <mxCell id="1f23ROASY3vp1ApizNz6-1" value="Start" style="ellipse;whiteSpace=wrap;html=1;" vertex="1" parent="1">
          <mxGeometry x="365" y="140" width="85" height="60" as="geometry" />
        </mxCell>
        <mxCell id="1f23ROASY3vp1ApizNz6-7" style="edgeStyle=orthogonalEdgeStyle;rounded=0;orthogonalLoop=1;jettySize=auto;html=1;exitX=0.5;exitY=1;exitDx=0;exitDy=0;entryX=0.5;entryY=0;entryDx=0;entryDy=0;" edge="1" parent="1" source="1f23ROASY3vp1ApizNz6-5" target="1f23ROASY3vp1ApizNz6-6">
          <mxGeometry relative="1" as="geometry" />
        </mxCell>
        <mxCell id="1f23ROASY3vp1ApizNz6-5" value="Login" style="rounded=0;whiteSpace=wrap;html=1;" vertex="1" parent="1">
          <mxGeometry x="347.5" y="240" width="120" height="30" as="geometry" />
        </mxCell>
        <mxCell id="1f23ROASY3vp1ApizNz6-8" style="edgeStyle=orthogonalEdgeStyle;rounded=0;orthogonalLoop=1;jettySize=auto;html=1;exitX=0;exitY=0.5;exitDx=0;exitDy=0;entryX=0;entryY=0.5;entryDx=0;entryDy=0;" edge="1" parent="1" source="1f23ROASY3vp1ApizNz6-6" target="1f23ROASY3vp1ApizNz6-5">
          <mxGeometry relative="1" as="geometry">
            <Array as="points">
              <mxPoint x="300" y="336" />
              <mxPoint x="300" y="255" />
            </Array>
          </mxGeometry>
        </mxCell>
        <mxCell id="1f23ROASY3vp1ApizNz6-14" style="edgeStyle=orthogonalEdgeStyle;rounded=0;orthogonalLoop=1;jettySize=auto;html=1;exitX=0.5;exitY=1;exitDx=0;exitDy=0;entryX=0.5;entryY=0;entryDx=0;entryDy=0;" edge="1" parent="1" source="1f23ROASY3vp1ApizNz6-6" target="1f23ROASY3vp1ApizNz6-13">
          <mxGeometry relative="1" as="geometry" />
        </mxCell>
        <mxCell id="1f23ROASY3vp1ApizNz6-6" value="valid&amp;nbsp;&lt;div&gt;user?&lt;/div&gt;" style="rhombus;whiteSpace=wrap;html=1;" vertex="1" parent="1">
          <mxGeometry x="371.25" y="300" width="72.5" height="72.5" as="geometry" />
        </mxCell>
        <mxCell id="1f23ROASY3vp1ApizNz6-9" value="No" style="text;html=1;align=center;verticalAlign=middle;whiteSpace=wrap;rounded=0;" vertex="1" parent="1">
          <mxGeometry x="320" y="310" width="60" height="30" as="geometry" />
        </mxCell>
        <mxCell id="1f23ROASY3vp1ApizNz6-11" value="Yes" style="text;html=1;align=center;verticalAlign=middle;whiteSpace=wrap;rounded=0;" vertex="1" parent="1">
          <mxGeometry x="395" y="372.5" width="60" height="30" as="geometry" />
        </mxCell>
        <mxCell id="1f23ROASY3vp1ApizNz6-34" style="edgeStyle=orthogonalEdgeStyle;rounded=0;orthogonalLoop=1;jettySize=auto;html=1;exitX=0.5;exitY=1;exitDx=0;exitDy=0;entryX=0.5;entryY=0;entryDx=0;entryDy=0;" edge="1" parent="1" source="1f23ROASY3vp1ApizNz6-13" target="1f23ROASY3vp1ApizNz6-33">
          <mxGeometry relative="1" as="geometry" />
        </mxCell>
        <mxCell id="1f23ROASY3vp1ApizNz6-13" value="Dashboard" style="rounded=0;whiteSpace=wrap;html=1;" vertex="1" parent="1">
          <mxGeometry x="347.5" y="410" width="120" height="30" as="geometry" />
        </mxCell>
        <mxCell id="1f23ROASY3vp1ApizNz6-21" style="edgeStyle=orthogonalEdgeStyle;rounded=0;orthogonalLoop=1;jettySize=auto;html=1;exitX=0.5;exitY=1;exitDx=0;exitDy=0;entryX=0.5;entryY=0;entryDx=0;entryDy=0;" edge="1" parent="1" source="1f23ROASY3vp1ApizNz6-18" target="1f23ROASY3vp1ApizNz6-20">
          <mxGeometry relative="1" as="geometry" />
        </mxCell>
        <mxCell id="1f23ROASY3vp1ApizNz6-18" value="Check new request" style="rounded=0;whiteSpace=wrap;html=1;" vertex="1" parent="1">
          <mxGeometry x="347.5" y="520" width="120" height="30" as="geometry" />
        </mxCell>
        <mxCell id="1f23ROASY3vp1ApizNz6-24" style="edgeStyle=orthogonalEdgeStyle;rounded=0;orthogonalLoop=1;jettySize=auto;html=1;exitX=0.5;exitY=1;exitDx=0;exitDy=0;entryX=0.5;entryY=0;entryDx=0;entryDy=0;" edge="1" parent="1" source="1f23ROASY3vp1ApizNz6-20" target="1f23ROASY3vp1ApizNz6-23">
          <mxGeometry relative="1" as="geometry" />
        </mxCell>
        <mxCell id="1f23ROASY3vp1ApizNz6-20" value="Approve/decline request" style="rounded=0;whiteSpace=wrap;html=1;" vertex="1" parent="1">
          <mxGeometry x="347.5" y="580" width="120" height="30" as="geometry" />
        </mxCell>
        <mxCell id="1f23ROASY3vp1ApizNz6-25" style="edgeStyle=orthogonalEdgeStyle;rounded=0;orthogonalLoop=1;jettySize=auto;html=1;exitX=0;exitY=0.5;exitDx=0;exitDy=0;entryX=0;entryY=0.5;entryDx=0;entryDy=0;" edge="1" parent="1" source="1f23ROASY3vp1ApizNz6-23" target="1f23ROASY3vp1ApizNz6-18">
          <mxGeometry relative="1" as="geometry">
            <Array as="points">
              <mxPoint x="310" y="676" />
              <mxPoint x="310" y="535" />
            </Array>
          </mxGeometry>
        </mxCell>
        <mxCell id="1f23ROASY3vp1ApizNz6-29" style="edgeStyle=orthogonalEdgeStyle;rounded=0;orthogonalLoop=1;jettySize=auto;html=1;exitX=0.5;exitY=1;exitDx=0;exitDy=0;entryX=0.5;entryY=0;entryDx=0;entryDy=0;" edge="1" parent="1" source="1f23ROASY3vp1ApizNz6-23" target="1f23ROASY3vp1ApizNz6-30">
          <mxGeometry relative="1" as="geometry">
            <mxPoint x="407.5" y="750" as="targetPoint" />
          </mxGeometry>
        </mxCell>
        <mxCell id="1f23ROASY3vp1ApizNz6-23" value="sucessful?" style="rhombus;whiteSpace=wrap;html=1;" vertex="1" parent="1">
          <mxGeometry x="371.25" y="640" width="72.5" height="72.5" as="geometry" />
        </mxCell>
        <mxCell id="1f23ROASY3vp1ApizNz6-26" value="No" style="text;html=1;align=center;verticalAlign=middle;whiteSpace=wrap;rounded=0;" vertex="1" parent="1">
          <mxGeometry x="320" y="650" width="60" height="30" as="geometry" />
        </mxCell>
        <mxCell id="1f23ROASY3vp1ApizNz6-27" value="Yes" style="text;html=1;align=center;verticalAlign=middle;whiteSpace=wrap;rounded=0;" vertex="1" parent="1">
          <mxGeometry x="395" y="712.5" width="60" height="30" as="geometry" />
        </mxCell>
        <mxCell id="1f23ROASY3vp1ApizNz6-32" style="edgeStyle=orthogonalEdgeStyle;rounded=0;orthogonalLoop=1;jettySize=auto;html=1;exitX=0.5;exitY=1;exitDx=0;exitDy=0;entryX=0.5;entryY=0;entryDx=0;entryDy=0;" edge="1" parent="1" source="1f23ROASY3vp1ApizNz6-30" target="1f23ROASY3vp1ApizNz6-31">
          <mxGeometry relative="1" as="geometry" />
        </mxCell>
        <mxCell id="1f23ROASY3vp1ApizNz6-30" value="logout" style="rounded=0;whiteSpace=wrap;html=1;" vertex="1" parent="1">
          <mxGeometry x="347.5" y="750" width="120" height="30" as="geometry" />
        </mxCell>
        <mxCell id="1f23ROASY3vp1ApizNz6-31" value="Stop" style="ellipse;whiteSpace=wrap;html=1;" vertex="1" parent="1">
          <mxGeometry x="365" y="800" width="85" height="60" as="geometry" />
        </mxCell>
        <mxCell id="1f23ROASY3vp1ApizNz6-35" style="edgeStyle=orthogonalEdgeStyle;rounded=0;orthogonalLoop=1;jettySize=auto;html=1;exitX=0.5;exitY=1;exitDx=0;exitDy=0;entryX=0.5;entryY=0;entryDx=0;entryDy=0;" edge="1" parent="1" source="1f23ROASY3vp1ApizNz6-33" target="1f23ROASY3vp1ApizNz6-18">
          <mxGeometry relative="1" as="geometry" />
        </mxCell>
        <mxCell id="1f23ROASY3vp1ApizNz6-33" value="Manage Contacts" style="rounded=0;whiteSpace=wrap;html=1;" vertex="1" parent="1">
          <mxGeometry x="347.5" y="470" width="120" height="30" as="geometry" />
        </mxCell>
      </root>
    </mxGraphModel>
  </diagram>
</mxfile>
